<svg xmlns="http://www.w3.org/2000/svg" viewBox="0 0 512 512">
    <path fill="currentColor"
        d="M294.36,149.79c-55.66,2.05-193.72,17.71-193.72,134.28,0,125.14,158.06,130.29,209.72,49.37,7.43,11.66,40.45,42.86,51.77,53.49l64.91-64S390.13,294,390.13,262.59V94.47c0-28.91-28-94.06-128.34-94.06-100.58,0-154,62.86-154,119.2l84,7.78c18.63-56.58,61.95-56.58,61.95-56.58,46.51-.11,40.57,34.06,40.57,79Zm0,99.2c0,91.42-96.23,77.71-96.23,19.65,0-53.94,57.71-64.8,96.23-66ZM449.79,435.84c-8.8,11.43-80,76.57-199.43,76.57S39.5,430.7,11.5,397c-7.77-8.8,1.14-12.92,6.29-9.49,83.77,50.86,214.62,134.63,425.71,34.63C452.07,417.9,458.7,424.41,449.79,435.84Zm45.48,2.52C487.84,456.41,477,469,471,473.79c-6.28,5.14-10.85,3.08-7.43-4.35s22.06-53.14,14.52-62.85c-7.43-9.49-42.29-4.92-54.86-3.66-12.34,1.14-14.86,2.28-16-.34-2.63-6.52,24.8-17.72,42.86-20,17.94-2.06,46.86-.92,52.57,6.51,4.23,5.83,0,31-7.43,49.26Z" />
</svg>