<svg xmlns="http://www.w3.org/2000/svg" viewBox="0 0 512 512">
    <path fill="currentColor"
        d="M480,336.41v-288a48,48,0,0,0-48-48H128a96,96,0,0,0-96,96v320a96,96,0,0,0,96,96H448c17.67,0,32-14.33,32-31.1,0-11.72-6.61-21.52-16-27.1V372.85C473.8,363.21,480,350.61,480,336.41Zm-304.9-208h192c9.7,0,16.9,7.2,16.9,16a16,16,0,0,1-16,16H175.1c-7.9,0-15.1-7.2-15.1-16S167.2,128.41,175.1,128.41Zm0,64h192c9.7,0,16.9,7.2,16.9,16a16,16,0,0,1-16,16H175.1c-7.9,0-15.1-7.2-15.1-16S167.2,192.41,175.1,192.41Zm240.9,256H128a32,32,0,0,1,0-64H416Z" />
</svg>