<svg xmlns="http://www.w3.org/2000/svg" viewBox="0 0 512 512">
    <path fill="currentColor"
        d="M153.35,487.36a32.79,32.79,0,0,1-15.19-3.72C12.67,418.55-36.29,264,28.81,138.55A255.92,255.92,0,0,1,138.16,29.19a33,33,0,1,1,30.42,58.55c-93.15,48.31-129.5,163-81.19,256.15a190,190,0,0,0,81.19,81.2,33,33,0,0,1-15.23,62.27Z" />
    <path fill="currentColor"
        d="M358.65,487.36a33,33,0,0,1-15.23-62.27c93.15-48.31,129.5-163,81.19-256.15a190,190,0,0,0-81.19-81.2,33,33,0,1,1,30.42-58.55c125.49,65.1,174.45,219.6,109.35,345.09A255.92,255.92,0,0,1,373.84,483.64,32.79,32.79,0,0,1,358.65,487.36Z" />
</svg>