<svg xmlns="http://www.w3.org/2000/svg" viewBox="0 0 512 512">
    <path fill="currentColor"
        d="M182.86,54.86A54.86,54.86,0,0,1,237.71,0h36.58a54.86,54.86,0,0,1,54.85,54.86V457.14A54.87,54.87,0,0,1,274.29,512H237.71a54.87,54.87,0,0,1-54.85-54.86ZM0,274.29a54.86,54.86,0,0,1,54.86-54.86H91.43a54.88,54.88,0,0,1,54.86,54.86V457.14A54.88,54.88,0,0,1,91.43,512H54.86A54.86,54.86,0,0,1,0,457.14ZM457.14,73.14A54.87,54.87,0,0,1,512,128V457.14A54.87,54.87,0,0,1,457.14,512H420.57a54.88,54.88,0,0,1-54.86-54.86V128a54.88,54.88,0,0,1,54.86-54.86Z" />
</svg>