<svg xmlns="http://www.w3.org/2000/svg" viewBox="0 0 512 512">
    <path fill="currentColor"
        d="M342.74,181.94c5.83,42.63-5.37,90.29-41,115.09-25.48,17.71-60.34,16.11-80.91,6.51-42.4-19.77-56.57-67-53.49-111.08,4.92-69.6,46.75-100.46,86.06-100,53.6-.23,82.06,36.34,89.37,89.48ZM512,64V448a64,64,0,0,1-64,64H64A64,64,0,0,1,0,448V64A64,64,0,0,1,64,0H448A64,64,0,0,1,512,64ZM377.14,321.37S377,282.51,377,73H343.89v46.06c-.92.34-1.38-.58-1.83-1.38-11-23.65-41-52.91-86.86-52.57-59.31.46-99.66,35.66-115,88.92-4.92,17-6.63,34.4-6.29,52.11,1.95,89,51.55,134.63,128.46,131.66,33-1.26,62.29-19.43,78.86-51.66.57-1.14,1.25-2.17,1.94-3.31.23.11.46.11.69.23.34,4.34.22,35.08.11,39.42-.23,16.92-2.29,33.72-8.23,49.72-8.91,24-25.48,39.66-50.86,45.14-20.34,4.46-40.68,4.34-60.8-1.37-24.57-7-41.71-21.71-47-47.77-.34-1.83-1.48-1.49-2.63-1.49H143.89c.91,12.12,3.65,23.2,9.71,33.37,27.66,46.29,94.51,55.43,146.51,42.75,57-14.06,76.92-62.75,77-121.49Z" />
</svg>