<svg xmlns="http://www.w3.org/2000/svg" viewBox="0 0 512 512">
    <path fill="currentColor"
        d="M212.86,393.47q0,69.21,16.63,77.72Q238.71,476,265.7,476q125.63,0,178.09-73.85,16.17-22.53,20.3-22.53,6.77,0,6.76,15.2,0,47.08-30.76,84.15Q413,511.58,366.32,511.59q-9.65,0-35.21-1.86-6.67-.37-44.49-2.59l-40.4-1.86q-20.39-1.11-46.34-1.11a824.59,824.59,0,0,0-92.67,5.65Q92,511.59,86.83,511.59q-10.76,0-10.75-9.83,0-6.79,9.63-9.45,23.73-6.66,32.81-25.7t9.08-62.31V95.14Q127.6,36,78.3,28.2L56.06,24.51Q42,22.24,42,13.2,42,1.91,53.11,1.9A75.15,75.15,0,0,1,63.88,3q5.19.38,14.48,1.48l16,1.11Q117,7.84,128.12,7.83q17.82,0,56.8-4.45a578.52,578.52,0,0,1,59-3Q266.24.41,266.24,11q0,9.07-15.94,9.82-37.45,2.6-37.44,51.44Z" />
</svg>