<svg xmlns="http://www.w3.org/2000/svg" viewBox="0 0 512 512">
    <path fill="currentColor"
        d="M131,150.59c47.1-47.1,125.39-47.1,172.5,0C345.88,193,352.15,260.48,317.33,309.2l-.94,1.35A27.12,27.12,0,0,1,272.25,279l.93-1.35a68.31,68.31,0,0,0-103.87-88L74.25,284.79c-26.69,25.93-26.69,69.9,0,96.59a68.21,68.21,0,0,0,87.95,7.29l1.35-1.7c12.2-8,29.15-5.17,37.79,7a27.14,27.14,0,0,1-6.27,37.88l-1.36.93C144.24,467.63,78.24,462,35.88,419.76a122.52,122.52,0,0,1,0-173.26ZM381,361.47a122.5,122.5,0,0,1-186.3-157.84l.93-1.36c8-12.11,24.91-15,37.78-6.27,12.2,8,15.09,24.91,6.36,37.79l-.93,1.36c-19.4,26.43-16.35,64.39,7.28,88a68.41,68.41,0,0,0,96.59,0L437.72,228c26.69-26.69,26.69-70.66,0-96.59a68.22,68.22,0,0,0-87.94-7.28l-1.36.93c-12.2,8.73-29.15,5.17-37.79-6.29A27.08,27.08,0,0,1,316.9,81l1.36-1A122.51,122.51,0,0,1,476.1,266.33Z" />
</svg>