<svg xmlns="http://www.w3.org/2000/svg" xmlns:xlink="http://www.w3.org/1999/xlink" viewBox="0 0 512 512"><defs><style>.cls-1{fill:none;}.cls-2{opacity:0.9;fill:url(#New_Gradient_Swatch_3);}</style><linearGradient id="New_Gradient_Swatch_3" x1="42.77" y1="256" x2="469.23" y2="256" gradientUnits="userSpaceOnUse"><stop offset="0" stop-color="#c27ad3"/><stop offset="1" stop-color="#8f55ff"/></linearGradient></defs><g id="Layer_2" data-name="Layer 2"><g id="Logo"><g id="logo-2" data-name="logo"><rect class="cls-1" width="512" height="512"/><path id="Logo-3" data-name="Logo" class="cls-2" d="M469.23,332.15V58a45.69,45.69,0,0,0-45.69-45.69H134.16a91.39,91.39,0,0,0-91.39,91.38V408.31a91.39,91.39,0,0,0,91.39,91.38H438.77c16.82,0,30.46-13.64,30.46-29.6,0-11.16-6.29-20.49-15.23-25.8V366.84C463.33,357.66,469.23,345.67,469.23,332.15ZM179,134.16H361.76c9.23,0,16.08,6.85,16.08,15.23a15.23,15.23,0,0,1-15.23,15.23H179c-7.52,0-14.37-6.86-14.37-15.23S171.47,134.16,179,134.16Zm0,60.92H361.76c9.23,0,16.08,6.85,16.08,15.23a15.23,15.23,0,0,1-15.23,15.23H179c-7.52,0-14.37-6.86-14.37-15.23S171.47,195.08,179,195.08ZM408.31,438.77H134.16a30.47,30.47,0,1,1,0-60.93H408.31Z"/></g></g></g></svg>