<svg xmlns="http://www.w3.org/2000/svg" viewBox="0 0 512 512">
    <path fill="currentColor"
        d="M495.22,317.94l-44-25.4a198.75,198.75,0,0,0,0-72.46l44-25.4a12.47,12.47,0,0,0,5.68-14.45,257.18,257.18,0,0,0-56.47-97.65,12.41,12.41,0,0,0-15.27-2.37l-44,25.39a194.63,194.63,0,0,0-62.76-36.23V18.69a12.37,12.37,0,0,0-9.7-12.08A259.43,259.43,0,0,0,200,6.61a12.38,12.38,0,0,0-9.71,12.08V69.47a201.18,201.18,0,0,0-62.76,36.23L83.66,80.31a12.27,12.27,0,0,0-15.28,2.38,255.64,255.64,0,0,0-56.46,97.65,12.35,12.35,0,0,0,5.68,14.45l44,25.39a198.81,198.81,0,0,0,0,72.47L17.6,318a12.48,12.48,0,0,0-5.68,14.45,257.14,257.14,0,0,0,56.46,97.65,12.43,12.43,0,0,0,15.28,2.38l44-25.4a194.84,194.84,0,0,0,62.76,36.24v50.78a12.37,12.37,0,0,0,9.7,12.08,259.58,259.58,0,0,0,112.72,0,12.38,12.38,0,0,0,9.71-12.08V443.36a201,201,0,0,0,62.76-36.24l44,25.4a12.26,12.26,0,0,0,15.28-2.38A255.64,255.64,0,0,0,501,332.49,12.73,12.73,0,0,0,495.22,317.94ZM256.36,375A118.71,118.71,0,1,1,375.07,256.31,118.85,118.85,0,0,1,256.36,375Z" />
</svg>